<?xml version="1.0" encoding="UTF-8"?>
<svg id="Layer_1" data-name="Layer 1" xmlns="http://www.w3.org/2000/svg" viewBox="0 0 96 96">
  <defs>
    <style>
      .cls-1 {
        fill: #fff;
      }

      .cls-2 {
        fill: #f76c46;
      }
    </style>
  </defs>
  <rect class="cls-1" x="-.21" y="-.69" width="96.55" height="96.65"/>
  <path class="cls-2" d="M70.95,31.31l-.39-1.95c-1.07-5.35-3.98-10.2-8.2-13.66-4.22-3.46-9.55-5.36-15-5.36-3.82,0-7.61.93-10.98,2.7-3.19,1.67-6,4.1-8.13,7.01-2.13,2.91-3.58,6.33-4.2,9.88-.65,3.75-.39,7.65.78,11.28,1.65,5.16,1.96,10.69.9,16l-.44,2.19c-1.29,6.47.36,13.11,4.55,18.21,4.18,5.1,10.37,8.03,16.97,8.03,4.68,0,9.15-1.46,12.93-4.22,3.78-2.76,6.53-6.57,7.96-11.03l1.29-4.02c3.62-11.31,4.3-23.44,1.97-35.08ZM40.31,30.25c0-2.8,2.27-5.08,5.08-5.08s5.08,2.27,5.08,5.08-2.27,5.08-5.08,5.08-5.08-2.27-5.08-5.08ZM52.01,68.75l-1.29,4.02c-.38,1.2-1.5,2.02-2.76,2.02-1.83,0-3.21-1.68-2.85-3.47l.44-2.19c1.7-8.5,1.21-17.29-1.44-25.54-.96-2.98,1.27-6.04,4.41-6.04,2.2,0,4.1,1.56,4.54,3.72l.39,1.95c1.7,8.5,1.21,17.29-1.44,25.54ZM53.98,32.24c-.53,0-.95-.43-.95-.95,0-4.79-3.89-8.68-8.68-8.68-.53,0-.95-.43-.95-.95s.43-.95.95-.95c5.84,0,10.58,4.75,10.58,10.58,0,.53-.43.95-.95.95Z"/>
</svg>